<?xml version="1.0" encoding="iso-8859-1"?>
<!-- Generator: Adobe Illustrator 19.0.0, SVG Export Plug-In . SVG Version: 6.00 Build 0)  -->
<svg xmlns="http://www.w3.org/2000/svg" xmlns:xlink="http://www.w3.org/1999/xlink" version="1.1" id="Capa_1" x="0px" y="0px" viewBox="0 0 512 512" style="enable-background:new 0 0 512 512;" xml:space="preserve" width="512px" height="512px">
<g>
	<g>
		<g>
			<path d="M512,33.292C512,14.938,497.063,0,478.708,0c-8.771,0-17.344,3.552-23.542,9.75L207.411,257.495     c-0.775-0.404-1.424-1.007-2.297-1.214c-3.615-0.813-7.375,0.24-9.99,2.844l-88.458,88.458l-13.792-13.792     c-4.167-4.167-10.917-4.167-15.083,0l-42.667,42.667c-4.167,4.167-4.167,10.917,0,15.083l13.792,13.792L3.125,451.125     c-4.167,4.167-4.167,10.917,0,15.083l42.667,42.667c2.083,2.083,4.813,3.125,7.542,3.125c2.729,0,5.458-1.042,7.542-3.125     l170.667-170.667c2.854-2.854,3.854-7.083,2.573-10.917l-0.568-1.704L502.25,56.833C508.448,50.635,512,42.063,512,33.292z      M85.333,356.417l16.917,16.917l-27.583,27.583L57.75,384L85.333,356.417z M53.333,486.25L25.75,458.667L64,420.417l3.125,3.125     c2.083,2.083,4.813,3.125,7.542,3.125c1.703,0,3.342-0.551,4.888-1.362l17.361,17.361L53.333,486.25z M111.999,427.582     l-16.915-16.915L112,393.75l16.914,16.914L111.999,427.582z M143.997,395.581l-17.359-17.359c2.112-4.023,1.62-9.047-1.763-12.43     l-3.125-3.125l76.25-76.25l13.792,41.365L143.997,395.581z M487.167,41.75L226.005,302.962l-8.474-25.421L470.25,24.833     c2.229-2.219,5.313-3.5,8.458-3.5c6.594,0,11.958,5.365,11.958,11.958C490.667,36.438,489.396,39.521,487.167,41.75z" fill="#91DC5A"/>
			<circle cx="181.333" cy="330.667" r="10.667" fill="#91DC5A"/>
		</g>
	</g>
</g>
<g>
</g>
<g>
</g>
<g>
</g>
<g>
</g>
<g>
</g>
<g>
</g>
<g>
</g>
<g>
</g>
<g>
</g>
<g>
</g>
<g>
</g>
<g>
</g>
<g>
</g>
<g>
</g>
<g>
</g>
</svg>
